<svg width="48" height="48" viewBox="0 0 48 48" fill="none" xmlns="http://www.w3.org/2000/svg">
<rect width="48" height="48" rx="24" fill="#9A91FE"/>
<path fill-rule="evenodd" clip-rule="evenodd" d="M9.75165 9.75165C10.7538 8.74945 12.3787 8.74945 13.3809 9.75165L15.5659 11.9366C17.9616 10.2445 20.8856 9.25034 24.0417 9.25034C27.1764 9.25034 30.082 10.231 32.4685 11.9022L34.6191 9.75165C35.6213 8.74945 37.2462 8.74945 38.2484 9.75165C39.2506 10.7538 39.2506 12.3787 38.2484 13.3809L36.0978 15.5315C37.769 17.918 38.7497 20.8236 38.7497 23.9583C38.7497 27.1144 37.7555 30.0384 36.0634 32.4341L38.2484 34.6191C39.2505 35.6213 39.2505 37.2462 38.2484 38.2484C37.2462 39.2505 35.6213 39.2505 34.6191 38.2484L32.4194 36.0486C30.0421 37.699 27.1549 38.6662 24.0417 38.6662C20.9071 38.6662 18.0015 37.6856 15.6149 36.0144L13.3809 38.2484C12.3787 39.2506 10.7538 39.2505 9.75165 38.2484C8.74945 37.2462 8.74945 35.6213 9.75165 34.6191L11.9856 32.3851C10.3144 29.9985 9.33379 27.0929 9.33379 23.9583C9.33379 20.8451 10.301 17.9579 11.9514 15.5806L9.75165 13.3809C8.74945 12.3787 8.74945 10.7538 9.75165 9.75165ZM19.332 32.2972C20.7227 33.0843 22.3297 33.5336 24.0417 33.5336C25.7318 33.5336 27.3197 33.0958 28.698 32.3273L24 27.6293L19.332 32.2972ZM20.3707 24L15.7028 28.668C14.9157 27.2773 14.4664 25.6703 14.4664 23.9583C14.4664 22.2682 14.9042 20.6803 15.6727 19.302L20.3707 24ZM27.6293 24L32.3504 28.7211C33.1563 27.3183 33.6171 25.6921 33.6171 23.9583C33.6171 22.2463 33.1678 20.6392 32.3807 19.2486L27.6293 24ZM28.7514 15.6193L24 20.3707L19.2789 15.6496C20.6817 14.8437 22.3079 14.3829 24.0417 14.3829C25.7537 14.3829 27.3608 14.8322 28.7514 15.6193Z" fill="#0A0919"/>
</svg>
